<svg width="88" height="9" viewBox="0 0 88 9" fill="none" xmlns="http://www.w3.org/2000/svg">
<g clip-path="url(#clip0_116_574)">
<path d="M6.58995 5.22483C7.63523 4.25129 9.69179 4.31104 11.4071 4.25898C14.4018 4.1681 17.4177 4.25723 20.392 4.48038C26.2453 4.91957 31.9824 5.85158 37.6907 6.71607C48.3364 8.32834 59.2552 9.76272 70.2378 8.54379C76.4444 7.85493 82.0311 6.1927 86.9841 3.8776C88.4708 3.18268 88.1998 1.64853 86.9841 0.919077C85.5164 0.0384404 83.5441 0.222343 82.0535 0.919077C63.0444 9.80416 38.5019 1.11584 17.8279 0.141651C11.7523 -0.144642 4.27159 -0.335365 0.569049 3.1131C-1.86842 5.38331 4.16499 7.4834 6.58994 5.22484L6.58995 5.22483Z" fill="#2A7187"/>
</g>
<defs>
<clipPath id="clip0_116_574">
<rect width="88" height="9" fill="white"/>
</clipPath>
</defs>
</svg>
