<svg width="2312" height="1760" viewBox="0 0 2312 1760" fill="none" xmlns="http://www.w3.org/2000/svg">
<g clip-path="url(#clip0_134_559)">
<path d="M1401.85 530.361C1404.73 530.493 1407.57 529.738 1410.01 528.198C1412.44 526.658 1414.34 524.407 1415.45 521.751C1416.56 519.094 1416.83 516.161 1416.21 513.348C1415.6 510.534 1414.14 507.977 1412.03 506.023C1411.67 504.615 1411.42 503.605 1411.06 502.197C1411.19 501.891 1411.32 501.585 1411.45 501.279C1424.37 470.454 1468.19 470.666 1481 501.538C1492.38 528.938 1506.86 556.384 1510.43 585.355C1512 598.161 1511.34 611.143 1508.47 623.722C1535.19 565.435 1549.07 502.083 1549.16 437.963C1549.16 421.873 1548.27 405.795 1546.48 389.805C1545 376.696 1542.95 363.681 1540.33 350.759C1526 280.645 1495.25 214.928 1450.6 159.005C1428.99 147.214 1411.51 129.081 1400.53 107.05C1396.55 99.1311 1393.73 90.6774 1392.17 81.9521C1394.61 82.2719 1401.37 45.1437 1399.53 42.8657C1402.92 37.7104 1409.01 35.1477 1412.72 30.117C1431.17 5.0978 1456.59 9.46632 1469.87 43.4655C1498.22 57.7755 1498.49 81.5076 1481.1 104.332C1470.03 118.854 1468.51 138.503 1458.8 154.049C1459.8 155.328 1460.83 156.567 1461.83 157.846C1480.1 181.332 1496.02 206.551 1509.36 233.141C1505.59 203.65 1511.16 168.12 1520.66 145.217C1531.48 119.122 1551.76 97.1443 1569.61 74.5849C1591.06 47.4876 1635.03 59.3134 1638.81 93.6635C1638.85 93.9961 1638.88 94.3285 1638.92 94.6609C1636.27 96.157 1633.67 97.745 1631.13 99.425C1627.94 101.557 1625.47 104.603 1624.04 108.164C1622.61 111.725 1622.29 115.635 1623.12 119.382C1623.95 123.129 1625.89 126.537 1628.69 129.161C1631.49 131.785 1635.02 133.502 1638.81 134.087L1639.2 134.147C1638.25 143.705 1636.58 153.177 1634.2 162.482C1657.11 251.064 1607.66 283.327 1537.05 284.776C1535.49 285.575 1533.97 286.374 1532.41 287.134C1545.82 325.13 1554.23 364.707 1557.43 404.872C1559.24 428.568 1559.14 452.371 1557.11 476.05L1557.23 475.211C1562.35 448.881 1576.39 425.123 1597 407.949C1627.6 382.811 1670.83 373.554 1703.85 353.348C1719.74 343.621 1740.1 356.19 1737.33 374.615C1737.29 374.909 1737.24 375.203 1737.19 375.497C1732.27 377.502 1727.48 379.811 1722.85 382.411C1720.2 383.908 1717.6 385.496 1715.06 387.175C1711.87 389.307 1709.4 392.353 1707.97 395.914C1706.54 399.476 1706.21 403.386 1707.04 407.133C1707.87 410.879 1709.82 414.288 1712.62 416.912C1715.42 419.536 1718.95 421.252 1722.74 421.837L1723.13 421.897C1723.41 421.937 1723.65 421.977 1723.93 422.017C1715.52 442.095 1703.71 460.576 1689.04 476.65C1674.71 553.978 1613.2 561.314 1547.4 538.796H1547.36C1540.14 570.169 1529.68 600.706 1516.15 629.916H1404.64C1404.24 628.678 1403.88 627.399 1403.52 626.16C1413.84 626.808 1424.21 626.191 1434.38 624.322C1426.1 614.17 1417.83 603.939 1409.56 593.788C1409.37 593.598 1409.2 593.398 1409.04 593.188C1404.84 587.993 1400.61 582.837 1396.41 577.642L1396.41 577.636C1396.18 561.71 1398.01 545.822 1401.85 530.363L1401.85 530.361Z" fill="#94DFF6"/>
<path d="M1759.85 245.001C1739.12 169.411 1906.34 104.592 1950.25 165.464C1956.36 156.81 1978.92 151.553 1989.27 154.208C1999.63 156.863 2008.34 163.5 2016.83 169.924C2028.51 178.897 2040.62 188.189 2047.79 201.091C2055.01 213.94 2056.12 231.462 2046.41 242.611C2038.71 251.478 2015.98 257.213 2004.41 259.549C1996.34 261.195 1989.54 262.522 1983.7 263.478C1978.39 255.835 1975.95 246.567 1976.8 237.302C1972.87 239.954 1969.57 243.443 1967.15 247.518C1964.72 251.594 1963.23 256.156 1962.78 260.876C1962.62 262.841 2028.03 503.521 2028.03 503.521C2020.17 507.994 2011.91 511.71 2003.34 514.618C1986.41 488.729 1973.43 460.453 1964.85 430.727C1962.88 450.604 1963.13 470.638 1965.59 490.46C1966.91 501.574 1968.78 512.615 1971.22 523.538C1893.49 540.316 1776.58 534.794 1725.71 463.434C1725.7 463.139 1725.69 462.844 1725.68 462.548C1725.65 459.731 1724.63 457.016 1722.81 454.867C1720.98 452.718 1718.47 451.269 1715.7 450.769C1712.93 450.269 1710.07 450.748 1707.61 452.124C1705.15 453.5 1703.25 455.688 1702.23 458.313C1700.99 461.462 1699.86 464.187 1698.84 466.354C1684.03 413.365 1703.2 352.04 1759.85 245.001Z" fill="#2F2E41"/>
<path d="M1627.58 1512.28V1514.76C1627.48 1513.94 1627.48 1513.11 1627.58 1512.28V1512.28Z" fill="#2F2E41"/>
<path d="M1703.7 1084.5C1705.67 1083.96 1707.69 1083.57 1709.72 1083.33C1707.39 1083.71 1705.38 1084.1 1703.7 1084.5Z" fill="#2F2E41"/>
<path d="M1701.94 1084.95C1702.47 1084.8 1703.07 1084.65 1703.7 1084.5C1703.11 1084.65 1702.54 1084.77 1701.94 1084.95Z" fill="#2F2E41"/>
<path d="M2264.33 1759.98H1979.41C1975.35 1756.74 1972.52 1752.19 1971.41 1747.11C1970.3 1742.03 1970.97 1736.72 1973.31 1732.08C1981.09 1714.23 1965.84 1697.91 1965.84 1697.91C1960.66 1691.85 1957.06 1684.6 1955.36 1676.81C1953.66 1669.01 1953.9 1660.92 1956.08 1653.25C1963.62 1626.88 1934.04 1552.46 1934.04 1552.46C1934.04 1552.46 1918.09 1648.56 1898.55 1759.98H1627.58C1623.04 1752.25 1620.64 1743.44 1620.64 1734.48C1620.64 1725.51 1623.04 1716.71 1627.58 1708.98C1643.37 1682.2 1627.58 1677.07 1627.58 1677.07C1627.58 1677.07 1611.78 1647.1 1627.58 1625.35C1643.37 1603.59 1627.58 1514.76 1627.58 1514.76C1628.17 1518.69 1632.67 1511.55 1639.6 1496.57C1650.14 1473.8 1666.26 1432.83 1682.54 1385.27C1694.18 1351.33 1705.91 1313.98 1715.72 1277.47H1715.74C1718.31 1267.87 1720.75 1258.37 1723.05 1248.95C1727.55 1230.48 1731.41 1212.53 1734.33 1195.68C1740.69 1159.38 1742.78 1128.2 1737.9 1107.92C1733.86 1091.04 1725 1081.73 1709.72 1083.33C1717.91 1081.97 1729.91 1080.69 1744.69 1079.47C1747.35 1079.26 1750.11 1079.04 1752.97 1078.81C1863.23 1070.48 2099.78 1065.69 2099.78 1065.69L2172.24 1195.44L2264 1359.8C2264 1359.8 2261.5 1580.29 2264.33 1759.98Z" fill="#2F2E41"/>
<path d="M1960.22 504.885L1793.28 469.475L1760.14 536.191L1648.52 600.812C1648.52 600.812 1720.47 894.991 1720.06 936.366C1719.02 1041.41 1550.94 1276.89 1677.89 1258.77C1804.85 1240.66 1830.63 1164.78 1871.39 1176.77C1908.15 1187.6 1953.03 1235.73 1983.07 1201.3C2013.12 1166.88 2023.7 1206.63 2042.7 1208.01C2051.73 1208.66 2046.29 1164.53 2069.01 1209.38C2091.73 1254.22 2212.19 1193.86 2171.36 1153.03C2103.36 1085.03 2089.54 583.763 2089.54 583.763L2013.85 560.472L1960.22 504.885Z" fill="#E6E6E6"/>
<path d="M1645.36 1573.22C1652.07 1565.22 1655.39 1554.92 1654.62 1544.51C1653.85 1534.1 1649.05 1524.4 1641.24 1517.48C1639.63 1516.1 1637.91 1514.85 1636.09 1513.75L1664 1376.77L1599.48 1338.15L1581.53 1529.93C1577.56 1537.82 1576.31 1546.79 1577.98 1555.46C1579.64 1564.12 1584.13 1572 1590.74 1577.84C1594.53 1581.13 1598.94 1583.65 1603.7 1585.23C1608.47 1586.82 1613.5 1587.46 1618.51 1587.1C1623.51 1586.75 1628.41 1585.41 1632.9 1583.17C1637.39 1580.92 1641.4 1577.81 1644.69 1574.02C1644.92 1573.76 1645.14 1573.49 1645.36 1573.22Z" fill="#A0616A"/>
<path d="M1845.71 851.176C1845.3 846.773 1839.69 844.773 1831.9 842.012C1824.08 839.604 1816.65 836.085 1809.84 831.563C1792.6 819.114 1799.39 806.093 1808.77 788.098C1810.6 784.599 1812.5 780.957 1814.29 777.173C1819.6 765.961 1811.15 719.712 1789.13 639.686C1782.34 615.05 1782.37 597.65 1777.68 586.105C1773.01 574.561 1763.66 568.872 1738.17 567.682C1707.35 566.126 1677.18 576.851 1654.26 597.507C1653.64 598.054 1653 598.649 1652.38 599.221C1651.21 600.316 1650.07 601.434 1648.95 602.577C1627.76 623.899 1615.63 652.591 1615.1 682.651L1614.98 687.768L1609.72 932.274L1594.94 1146.83L1574.57 1442.4L1589.66 1443.14L1649.88 1446.13L1657.19 1446.49L1674.52 1373.8L1695.37 1286.32L1703.03 1254.19L1726.81 1154.5L1737.9 1107.92L1744.69 1079.47L1747.45 1067.86L1760.92 1011.4C1761.23 1010.2 1792.22 887.928 1827.95 867.482C1841.28 859.865 1846.09 855.437 1845.71 851.176Z" fill="#E6E6E6"/>
<path d="M2246.58 1571.76C2239.05 1564.53 2234.64 1554.64 2234.29 1544.21C2233.94 1533.78 2237.67 1523.62 2244.7 1515.9C2246.15 1514.35 2247.73 1512.93 2249.41 1511.64L2206.95 1378.45L2266.96 1333.13L2305.4 1521.87C2310.19 1529.28 2312.4 1538.07 2311.67 1546.86C2310.95 1555.66 2307.33 1563.97 2301.38 1570.49C2297.97 1574.17 2293.86 1577.14 2289.29 1579.23C2284.73 1581.32 2279.79 1582.5 2274.78 1582.68C2269.76 1582.87 2264.75 1582.06 2260.04 1580.31C2255.34 1578.56 2251.02 1575.9 2247.34 1572.48C2247.08 1572.25 2246.83 1572 2246.58 1571.76Z" fill="#A0616A"/>
<path d="M2275.93 1282.75C2275.93 1282.75 2229.13 1118.1 2243.41 1100.27C2257.68 1082.45 2215.53 1078.96 2233.69 1045.77C2251.86 1012.57 2226.79 1007.02 2226.79 1007.02L2213.18 930.693L2188.86 743.216L2188.12 737.641L2181.05 683.097C2179.07 667.519 2173.97 652.498 2166.06 638.935C2158.15 625.371 2147.58 613.542 2134.99 604.156C2134.35 603.663 2133.69 603.191 2133.03 602.718C2130.04 600.562 2126.98 598.565 2123.85 596.726C2100.51 582.953 2073.09 577.745 2046.32 581.999C1995.88 589.855 2011.58 608.666 2003.4 659.06C1990.1 740.999 1986.65 787.877 1993.13 798.468C1995.32 802.035 1997.61 805.447 1999.8 808.723C2011.06 825.63 2019.21 837.827 2003.4 852.083C1997.1 857.292 1990.09 861.58 1982.59 864.817C1975.16 868.414 1969.78 870.995 1969.85 875.417C1969.94 879.701 1975.19 883.569 1989.25 889.704C2006.29 897.16 2024.59 925.353 2039.58 954.153C2051.47 977.368 2062.08 1001.22 2071.35 1025.6L2200.19 1387.95L2221.21 1447.05L2228.46 1445.9L2287.99 1436.46L2302.92 1434.1L2275.93 1282.75Z" fill="#E6E6E6"/>
<path d="M1889.79 466.972C1965 466.972 2025.98 405.997 2025.98 330.781C2025.98 255.564 1965 194.589 1889.79 194.589C1814.57 194.589 1753.6 255.564 1753.6 330.781C1753.6 405.997 1814.57 466.972 1889.79 466.972Z" fill="#A0616A"/>
<path d="M1685.52 255.62C1664.78 180.031 1832 115.211 1875.92 176.084C1882.02 167.429 1904.59 162.173 1914.94 164.828C1925.3 167.482 1934 174.119 1942.5 180.544C1954.18 189.517 1966.28 198.809 1973.45 211.711C1980.67 224.56 1981.79 242.081 1972.07 253.231C1964.37 262.098 1941.65 267.832 1930.07 270.168C1922 271.814 1915.21 273.142 1909.37 274.097C1904.06 266.454 1901.62 257.187 1902.46 247.922C1898.53 250.573 1895.24 254.062 1892.81 258.138C1890.39 262.214 1888.9 266.776 1888.45 271.496C1888.29 273.46 1953.7 514.141 1953.7 514.141C1945.84 518.614 1937.57 522.329 1929.01 525.237C1912.07 499.348 1899.1 471.072 1890.52 441.347C1888.55 461.224 1888.8 481.258 1891.26 501.079C1892.57 512.194 1894.45 523.234 1896.89 534.157C1819.16 550.935 1702.24 545.414 1651.38 474.054C1651.37 473.759 1651.36 473.463 1651.35 473.168C1651.31 470.351 1650.29 467.636 1648.47 465.487C1646.65 463.338 1644.14 461.889 1641.37 461.389C1638.59 460.888 1635.74 461.367 1633.28 462.744C1630.82 464.12 1628.92 466.308 1627.89 468.933C1626.66 472.081 1625.52 474.807 1624.51 476.974C1609.7 423.985 1628.86 362.66 1685.52 255.62Z" fill="#2F2E41"/>
<path d="M1010.09 726.221C1007.21 726.353 1004.37 725.598 1001.93 724.058C999.501 722.518 997.601 720.267 996.49 717.611C995.38 714.954 995.112 712.021 995.724 709.208C996.337 706.394 997.799 703.837 999.913 701.883C1000.27 700.476 1000.52 699.465 1000.88 698.058C1000.75 697.751 1000.62 697.445 1000.49 697.139C987.566 666.314 943.753 666.526 930.935 697.398C919.558 724.798 905.074 752.245 901.508 781.216C899.937 794.021 900.6 807.003 903.466 819.582C876.746 761.295 862.871 697.944 862.781 633.824C862.776 617.734 863.67 601.656 865.459 585.665C866.938 572.557 868.989 559.541 871.614 546.619C885.935 476.505 916.685 410.788 961.336 354.866C982.947 343.074 1000.42 324.941 1011.41 302.911C1015.39 294.992 1018.21 286.538 1019.77 277.812C1017.33 278.132 1010.57 241.004 1012.41 238.726C1009.01 233.571 1002.93 231.008 999.223 225.977C980.769 200.958 955.345 205.327 942.072 239.326C913.719 253.636 913.445 277.368 930.842 300.193C941.91 314.714 943.431 334.363 953.143 349.909C952.144 351.188 951.104 352.428 950.105 353.707C931.841 377.192 915.923 402.411 902.578 429.002C906.353 399.51 900.779 363.98 891.277 341.078C880.459 314.982 860.184 293.005 842.329 270.445C820.883 243.348 776.905 255.174 773.126 289.524C773.09 289.856 773.054 290.189 773.019 290.521C775.671 292.017 778.267 293.605 780.807 295.285C783.998 297.417 786.471 300.463 787.901 304.025C789.331 307.586 789.652 311.496 788.822 315.242C787.992 318.989 786.049 322.398 783.249 325.022C780.449 327.646 776.921 329.362 773.128 329.947L772.74 330.007C773.684 339.565 775.354 349.038 777.735 358.343C754.83 446.924 804.281 479.187 874.891 480.636C876.449 481.436 877.968 482.235 879.527 482.994C866.12 520.99 857.71 560.568 854.509 600.732C852.697 624.428 852.803 648.232 854.828 671.91L854.709 671.071C849.593 644.741 835.547 620.983 814.943 603.809C784.341 578.671 741.106 569.414 708.093 549.208C692.201 539.481 671.836 552.051 674.61 570.475C674.654 570.769 674.699 571.064 674.745 571.358C679.666 573.362 684.458 575.671 689.092 578.271C691.744 579.768 694.34 581.356 696.88 583.036C700.071 585.168 702.544 588.214 703.974 591.775C705.404 595.336 705.725 599.246 704.895 602.993C704.065 606.74 702.122 610.148 699.322 612.772C696.521 615.396 692.994 617.113 689.201 617.698L688.812 617.757C688.532 617.797 688.293 617.837 688.013 617.878C696.422 637.955 708.224 656.436 722.903 672.51C737.225 749.838 798.739 757.175 864.54 734.656H864.58C871.8 766.029 882.26 796.566 895.793 825.777H1007.3C1007.7 824.538 1008.06 823.259 1008.42 822.02C998.094 822.669 987.732 822.051 977.562 820.182C985.835 810.031 994.107 799.799 1002.38 789.648C1002.56 789.458 1002.74 789.258 1002.9 789.049C1007.1 783.853 1011.33 778.698 1015.53 773.502L1015.53 773.496C1015.75 757.57 1013.93 741.682 1010.09 726.223L1010.09 726.221Z" fill="#94DFF6"/>
<path d="M489.809 165.466C487.278 171.364 409.247 170.732 405.673 175.983C378.118 216.526 477.447 389.027 449.892 429.623L446.054 434.198C455.043 430.055 463.678 425.183 471.873 419.632C472.609 403.015 473.345 386.345 474.134 369.729C482.387 380.287 489.049 391.997 493.906 404.487C500.322 399.965 505.584 391.582 533.082 375.092C544.214 362.863 557.048 352.299 571.188 343.724L489.809 165.466Z" fill="#2F2E41"/>
<path d="M546.472 497.74C537.861 492.131 528.036 488.656 517.813 487.603C507.59 486.551 497.264 487.952 487.691 491.69C478.118 495.427 469.574 501.394 462.769 509.095C455.964 516.796 451.093 526.008 448.561 535.968L329.981 844.939L126.156 729.222C125.261 715.921 120.176 703.246 111.632 693.013C103.088 682.78 91.522 675.516 78.5941 672.263C65.6662 669.01 52.0401 669.935 39.6701 674.904C27.3002 679.874 16.8219 688.634 9.73803 699.927C2.6542 711.22 -0.671195 724.466 0.238782 737.766C1.14876 751.066 6.24737 763.736 14.8033 773.959C23.3593 784.182 34.933 791.433 47.8646 794.671C60.7962 797.91 74.4212 796.97 86.7855 791.986C129.709 837.798 315.8 1025.63 392.84 952.238C457.596 890.551 551.047 651.473 573.542 568.914C577.146 555.713 576.466 541.708 571.601 528.917C566.736 516.127 557.937 505.21 546.472 497.74V497.74Z" fill="#FFB6B6"/>
<path d="M323.811 965.185L361.231 1134.32L634.86 1159.07L660.007 1011.8L323.811 965.185Z" fill="#FFB6B6"/>
<path d="M741.784 1398.91C741.659 1401.33 741.509 1403.73 741.334 1406.16C738.71 1441.2 735.71 1481.62 732.46 1525.92C727.336 1596.2 721.612 1676.24 715.838 1759.98H141.899L253.208 1425.42C253.208 1425.42 298.153 1400.67 275.271 1359.1C252.389 1317.53 297.412 1350.66 297.831 1291.29C298.25 1231.93 338.594 1168.77 338.594 1168.77L345.219 1078.88L348.993 1078.96L647.673 1083.93L653.122 1084.03L662.296 1161.2C717.996 1227.48 746.412 1312.46 741.784 1398.91V1398.91Z" fill="#2F2E41"/>
<path d="M494.592 415.772L630.79 408.756L694.051 508.715C694.051 508.715 813.077 528.615 804.826 668.872C796.576 809.13 660.007 932.206 660.007 932.206L665.845 912.192L655.706 941.162L657.006 957.429L670.838 974.657L672.262 992.473L660.007 1020.66C661.601 1023.22 662.446 1026.17 662.448 1029.18C662.45 1032.19 661.608 1035.14 660.018 1037.69C658.428 1040.25 656.153 1042.31 653.452 1043.64C650.75 1044.97 647.731 1045.51 644.735 1045.21L447.939 1025.49C443.458 1013.17 439.863 998.419 421.904 1022.97L403.365 1021.17L326.301 1013.71L321.765 997.183C319.187 987.794 318.786 977.941 320.59 968.373C322.395 958.806 326.358 949.776 332.178 941.971V941.971C325.485 921.01 327.238 898.264 337.065 878.576L337.433 877.838L345.617 871.017C345.617 871.017 256.083 736.504 358.866 635.19L400.118 565.062L446.276 508.747L494.592 415.772Z" fill="#2A7187"/>
<path d="M528.489 356.766C599.819 356.766 657.643 298.942 657.643 227.613C657.643 156.283 599.819 98.459 528.489 98.459C457.159 98.459 399.335 156.283 399.335 227.613C399.335 298.942 457.159 356.766 528.489 356.766Z" fill="#FFB6B6"/>
<path d="M626.582 413.668C616.065 404.88 608.744 392.864 605.758 379.488C603.37 395.729 603.994 412.271 607.599 428.286C600.605 433.545 593.822 438.541 587.406 443.063C582.549 430.573 575.888 418.862 567.634 408.304C566.846 424.921 566.109 441.591 565.373 458.207C557.179 463.759 548.543 468.631 539.554 472.773L543.393 468.199C570.947 427.603 499.642 352.88 527.196 312.337C534.927 300.978 500.01 211.216 473.402 207.167C449.739 203.591 450.738 210.427 427.811 215.423C425.43 205.493 421.734 195.926 416.821 186.974C418.129 196.949 417.827 207.069 415.927 216.948C407.776 217.263 401.364 212.07 392.684 210.743C337.312 202.276 342.939 142.382 358.346 123.399C373.806 104.469 425.129 98.7893 448.792 92.6366C450.948 90.5334 455.839 91.848 457.995 89.8497C503.344 48.3469 563.996 41.4737 618.577 59.8687C676.783 79.4856 713.074 117.453 731.7 175.984L737.042 222.824C741.834 237.884 735.805 307.96 731.7 323.222C715.74 382.548 681.75 352.932 626.582 413.668Z" fill="#2F2E41"/>
<path d="M814.9 1025.56L809.815 629.562C809.55 612.785 802.699 596.786 790.742 585.016C778.784 573.245 762.678 566.648 745.899 566.648H745.899C737.219 566.648 728.63 568.416 720.655 571.844C712.681 575.272 705.488 580.288 699.515 586.586C693.542 592.884 688.915 600.333 685.915 608.478C682.915 616.623 681.605 625.294 682.065 633.962L699.957 1045.15L700.297 1295.46C689.752 1299.93 680.839 1307.54 674.769 1317.26C668.699 1326.97 665.767 1338.32 666.371 1349.76C666.974 1361.19 671.085 1372.17 678.143 1381.19C685.202 1390.21 694.866 1396.84 705.824 1400.18C716.781 1403.52 728.5 1403.4 739.389 1399.84C750.278 1396.29 759.808 1389.47 766.685 1380.31C773.563 1371.15 777.453 1360.09 777.828 1348.64C778.204 1337.19 775.046 1325.91 768.783 1316.32L814.9 1025.56Z" fill="#FFB6B6"/>
<path d="M1481.47 1537.9C1481.47 1537.9 1473.61 1679.33 1470 1759.99H1199.27C1193.7 1686.58 1191.82 1632.65 1191.82 1632.65L1177.01 1759.99H903.358L886.393 1524.16L968.378 1320.94C968.378 1320.94 1412.68 1290.12 1453.89 1329.21C1495.07 1368.27 1481.47 1537.9 1481.47 1537.9Z" fill="#2F2E41"/>
<path d="M1242.07 348.153C1323.74 348.153 1389.95 281.946 1389.95 200.274C1389.95 118.603 1323.74 52.3955 1242.07 52.3955C1160.4 52.3955 1094.19 118.603 1094.19 200.274C1094.19 281.946 1160.4 348.153 1242.07 348.153Z" fill="#FFB6B6"/>
<path d="M1414.44 152.223C1399.25 159.149 1389.41 209.31 1377.47 197.649C1365.53 185.987 1366.33 170.812 1350.23 166.508C1337.24 163.018 1323.25 167.007 1311.39 173.298C1309.28 174.408 1307.22 175.615 1305.22 176.815C1303.9 175.933 1302.59 175.103 1301.18 174.337C1290.57 168.662 1278.2 167.27 1266.59 170.447C1275.76 173.517 1283.73 179.392 1289.38 187.239C1285.41 189.898 1281.39 192.564 1277.28 194.926C1242.93 214.746 1194.06 171.649 1157.91 155.458C1180.56 197.951 1169.41 215.55 1149.74 259.497L1149.06 261.999C1150.18 250.985 1116.1 242.777 1118.08 258.281C1119.48 269.29 1129.01 293.759 1134.34 303.479C1096.33 259.53 1070.36 205.748 1075.84 150.268C1077.03 138.614 1076.67 126.317 1082.68 116.201C1088.7 106.138 1101.25 99.0759 1112.35 102.913C1111.41 85.2202 1115.28 67.6029 1123.55 51.9343C1131.82 36.2658 1144.19 23.1318 1159.33 13.9285C1174.47 4.72528 1191.82 -0.203142 1209.54 -0.332822C1227.25 -0.462503 1244.68 4.21144 1259.95 13.1921C1274.14 21.5198 1285.99 33.298 1299 43.4575C1312 53.617 1327 62.4727 1343.49 63.3114C1353.96 63.8161 1365.34 61.2615 1374.33 66.6809C1384.75 72.9694 1386.53 86.1354 1388.09 98.8044C1378.81 99.72 1370 103.384 1362.81 109.328C1372.42 108.348 1382.09 110.423 1390.45 115.258C1390.61 115.33 1390.76 115.416 1390.91 115.516C1396.41 136.453 1395.85 141.095 1414.44 152.223Z" fill="#2F2E41"/>
<path d="M904.014 1392.48C1029.95 1245.07 987.41 1057.59 937.429 868.327L946.939 588.735C947.406 575.02 951.166 561.618 957.901 549.662C964.637 537.706 974.151 527.547 985.639 520.041L1114.2 436.053L1164.24 363.707L1302.17 377.5L1378.65 458.387L1463.31 523.02C1484.57 539.248 1500.75 561.216 1509.93 586.334C1519.12 611.451 1520.93 638.671 1515.15 664.784L1434.14 1031.18C1434.14 1031.18 1468.02 1221.12 1447.34 1242.1C1426.67 1263.08 1373.39 1242.11 1415.64 1265.66C1466.34 1293.92 1512.44 1288.7 1486.79 1314.36C1461.13 1340.02 1493.6 1375.69 1493.6 1375.69L904.014 1392.48Z" fill="#2A7187"/>
<path d="M957.856 1606.71L978.851 1457.14L895.08 1433.22L878.51 1592.15C871.577 1598.51 866.555 1606.67 864.008 1615.72C861.461 1624.78 861.491 1634.36 864.093 1643.4C866.695 1652.44 871.767 1660.58 878.738 1666.89C885.709 1673.2 894.304 1677.45 903.555 1679.15C912.807 1680.84 922.348 1679.93 931.107 1676.5C939.866 1673.07 947.496 1667.27 953.137 1659.74C958.779 1652.22 962.209 1643.27 963.043 1633.9C963.877 1624.53 962.081 1615.11 957.856 1606.71V1606.71Z" fill="#FFB6B6"/>
<path d="M1117.34 463.016C1117.34 463.016 878.894 540.622 873.208 597.406C867.522 654.19 869.408 688.952 844.242 916.176L845.568 1528.26C845.568 1528.26 1005.43 1562.49 989.037 1525.89C972.642 1489.3 978.363 1472.08 978.363 1472.08C978.363 1472.08 1012.64 1458.55 1004.06 1415.58C995.478 1372.61 1038.5 1159.68 1038.5 1159.68L1065.66 777.782L1117.34 463.016Z" fill="#2A7187"/>
<path d="M1411.35 1598.79L1400.18 1448.16L1485.33 1429.77L1491.48 1589.44C1497.98 1596.24 1502.46 1604.72 1504.41 1613.92C1506.36 1623.12 1505.7 1632.68 1502.52 1641.53C1499.33 1650.38 1493.74 1658.17 1486.37 1664.01C1479 1669.86 1470.14 1673.53 1460.8 1674.62C1451.46 1675.71 1442 1674.17 1433.48 1670.18C1424.97 1666.18 1417.73 1659.89 1412.59 1652.02C1407.46 1644.14 1404.62 1634.98 1404.4 1625.58C1404.18 1616.17 1406.59 1606.9 1411.35 1598.79H1411.35Z" fill="#FFB6B6"/>
<path d="M1326.97 447.116C1326.97 447.116 1559.83 540.143 1561.79 597.177C1563.75 654.211 1559.6 688.775 1569.86 917.159L1528.53 1527.85C1528.53 1527.85 1366.77 1551.55 1385.52 1516.1C1404.27 1480.66 1399.69 1463.1 1399.69 1463.1C1399.69 1463.1 1366.37 1447.37 1377.74 1405.05C1389.11 1362.74 1360.1 1147.44 1360.1 1147.44L1357.96 764.587L1326.97 447.116Z" fill="#2A7187"/>
<rect x="28.1162" y="1748" width="1840" height="24" rx="12" fill="#2A7187"/>
<rect x="1888.12" y="1748" width="272" height="24" rx="12" fill="#2A7187"/>
<rect x="2200.12" y="1748" width="104" height="24" rx="12" fill="#2A7187"/>
</g>
<defs>
<clipPath id="clip0_134_559">
<rect width="2311.69" height="1759.98" fill="white" transform="translate(0.116211 0.00585938)"/>
</clipPath>
</defs>
</svg>
