<svg id="Logo" xmlns="http://www.w3.org/2000/svg" viewBox="0 0 760.91 1172.36"><defs><style>.cls-1{fill:#fff;}.cls-2{fill:#231f20;}.cls-3{fill:none;stroke:#000;stroke-linecap:round;stroke-linejoin:round;stroke-width:12px;}</style></defs><path class="cls-1" d="M1327.76,1415H672.24a46.92,46.92,0,0,1-46.92-46.91V464.3c0-25.91,21-45.67,46.92-45.67l656.7,0c25.9,0,45.74,21.48,45.74,47.39v902A46.92,46.92,0,0,1,1327.76,1415Z" transform="translate(-619.39 -412.68)"/><path d="M1327.76,1417c-153.56.18-510.59,1.87-660,1.75a13.56,13.56,0,0,1-1.8-.19l-1.79-.27a26.76,26.76,0,0,1-3.55-.67l-3.5-.89-3.41-1.22c-.56-.23-1.14-.39-1.68-.66l-1.64-.78a51.31,51.31,0,0,1-28.23-35.61,63,63,0,0,1-1.09-10.78v-3.33l-.05-13.33c-.34-260.63-2.63-634.63-1.18-893.58l.57-3.72.95-3.66a25.42,25.42,0,0,1,1.18-3.58l.66-1.77.34-.88L624,443l1.67-3.39c1-1.62,2-3.24,3-4.8l1.15-1.5,1.16-1.49.58-.74.64-.69a52.62,52.62,0,0,1,23.4-15.11,59.46,59.46,0,0,1,11-2.28c.61-.09,1.24-.08,1.86-.12l3.72-.17c151.11.14,509.35.4,656.31,1A51.4,51.4,0,0,1,1353.2,420a52.45,52.45,0,0,1,26.1,41.93c-.33,251.48-1.82,622.93-2.4,873.19-.35,6.08.57,33.55-.71,40.26l-.27,1.72-.14.86-.22.85-.87,3.37c-.32,1.11-.78,2.18-1.16,3.28l-.61,1.63-.75,1.57a49.65,49.65,0,0,1-21.07,22.4,55.06,55.06,0,0,1-6.34,2.81l-1.64.6a12.09,12.09,0,0,1-1.65.51l-3.37.87c-1.58.29-3.51.63-5.14.85-.57.07-1.15.07-1.73.11l-3.47.18Zm0-4,3.19-.16c.53,0,1.06,0,1.59-.09l1.58-.24c1-.18,2.11-.27,3.14-.52l3.09-.79.77-.2.75-.27,1.5-.55a22.28,22.28,0,0,0,3-1.21l2.87-1.39a45.32,45.32,0,0,0,19.21-20.63l.69-1.44.54-1.5c.34-1,.76-2,1-3l.79-3.08.19-.77.12-.79.24-1.57c1.3-89-.7-268.47-.45-359.46-.81-95.71-.58-466.53-2.22-555.64-2.24-16.91-15.12-31.66-32-35.16-1.24-.14-3.24-.55-4.4-.65l-1.48-.06c-1.17-.1-5-.16-6.35-.12-143.36.5-505.31.85-653,.92l-2.93.15a14.13,14.13,0,0,0-1.46.09l-1.45.22c-1,.16-1.94.22-2.89.46l-2.84.69a9.71,9.71,0,0,0-1.39.43l-1.38.48-1.37.47a43,43,0,0,0-13.35,8.59l-2,2.11-.5.52c-.57.8-1.6,2.06-2.21,2.86a46.63,46.63,0,0,0-3.57,6.25l-.32.65-.25.67-.5,1.36a19,19,0,0,0-.91,2.73l-.73,2.8-.44,2.86a13.85,13.85,0,0,0-.2,1.44l-.06,1.45c-.58,262.21-.73,638.8-1.86,902.47v3.33c0,1.08.09,2,.13,3.07l.07,1.52c0,.5.14,1,.21,1.5l.45,3a43.18,43.18,0,0,0,24.86,30.67,14.43,14.43,0,0,0,1.42.56l2.85,1a50.06,50.06,0,0,0,5.94,1.35l1.5.23a9.56,9.56,0,0,0,1.52.18l3,.16c145.61.67,506.49,1.51,656.23,2Z" transform="translate(-619.39 -412.68)"/><path class="cls-1" d="M1296.24,1377.83H700c-23.56,0-42.66-19.72-42.66-44V485.27A42.36,42.36,0,0,1,700,442.39l597.27,0c23.57,0,41.6,20.16,41.6,44.49v846.87C1338.9,1358.11,1319.8,1377.83,1296.24,1377.83Z" transform="translate(-619.39 -412.68)"/><path d="M1296.24,1379.85c-134.89.24-468.18,1.69-598.91,1.78A46,46,0,0,1,667.24,1368a48.72,48.72,0,0,1-12.77-23.35,48.2,48.2,0,0,1-1.06-6.65c0-.86-.2-3.44-.22-4.2v-2.32l-.09-24.68c-.56-235.83-1.86-580.35-1.67-814.71v-6.95l0-.87.08-1.75a26.92,26.92,0,0,1,.29-3.47l.51-3.47a48.4,48.4,0,0,1,47.59-39.17c132.86.14,467,.4,595.61.95h1.54c.52,0,1.14.05,1.7.07l3.46.21,3.43.56c23.49,4.37,38.86,26.95,38.07,50.19-.91,248.53-1.9,598.22-2.71,845.57-.19,24.76-19.63,45.65-44.79,45.86Zm0-4c22.86-.06,40.49-19.26,40.52-41.84-.42-247-2.13-597.43-2.69-845.55.57-18.53-11.36-36.95-30.25-40.35l-2.66-.43c-1.75,0-3.9-.26-5.62-.19-127.15.48-464.22.83-595.59.9a36.48,36.48,0,0,0-36.31,32.16c-.91,238.69-.86,586.05-2,826.31l-.09,24.68v2.32l0,.7.12,2.8a40.81,40.81,0,0,0,11.31,25,38.13,38.13,0,0,0,26.18,11.51c128.1.66,464.78,1.51,597.05,2Z" transform="translate(-619.39 -412.68)"/><path d="M701.27,914c12.06-2.65,24.22-3.18,36.46-3.19,164.22.09,346.41.72,510.42,2.69l36.46.5a2,2,0,0,1,0,4l-36.46.51c-164,2-346.26,2.6-510.42,2.69-12.24,0-24.4-.55-36.46-3.2a2.05,2.05,0,0,1,0-4Z" transform="translate(-619.39 -412.68)"/><path d="M701.27,656.82c18-4.56,36.34-4.71,54.69-4.6,174.45.21,354.31,1,528.65,4.6a2,2,0,0,1,0,4c-180.51,3.62-366.28,4.68-546.88,4.5-12.27-.44-24.44-1.41-36.46-4.5a2.06,2.06,0,0,1-1.46-2.53,2.08,2.08,0,0,1,1.46-1.47Z" transform="translate(-619.39 -412.68)"/><path d="M701.8,1195c12.05-2.65,24.22-3.18,36.46-3.19,164.22.08,346.4.72,510.42,2.68l36.46.51a2,2,0,0,1,0,4l-36.46.51c-164,2-346.26,2.6-510.42,2.69-12.24,0-24.41-.55-36.46-3.2a2,2,0,0,1,0-4Z" transform="translate(-619.39 -412.68)"/><path class="cls-1" d="M1343.77,1412.69,897.42,1578.37a47.4,47.4,0,0,1-63.89-44.44V558a47.39,47.39,0,0,1,37.84-46.42l446.34-91.92a47.41,47.41,0,0,1,57,46.43v902.2A47.41,47.41,0,0,1,1343.77,1412.69Z" transform="translate(-619.39 -412.68)"/><path d="M1344.47,1414.58c-49,18.8-391.06,146.28-431.95,162-5.78,1.92-17.2,7.09-23.69,7.82a51.24,51.24,0,0,1-59.28-50.54c-1-264.65-2.47-625.12-2.47-889.25.16-15-.16-58.09,0-72.84V558.08a56.51,56.51,0,0,1,1.35-12,53.74,53.74,0,0,1,23-33.21,55,55,0,0,1,14-6.56c6.14-1.65,16.48-3.56,22.82-4.91,116.45-24.05,287.68-58.89,404.38-82.7l23.8-4.83a53.6,53.6,0,0,1,26.92,1.4c19.63,6.14,34.64,24.3,36.66,44.8.5,3.45.25,14.95.28,18.82,0,14.56-.25,57.52-.26,72.84-1.09,232-2.15,570.73-3,801.24l0,12.14v3l-.13,3.17c0,1.06-.22,2.11-.32,3.16a49.74,49.74,0,0,1-32,40.07Zm-1.4-3.79c15.49-5.74,27.18-20.38,29-36.83.69-4.73.22-15.88.32-21-.5-230-2.36-569.78-3.05-801.24-.35-14.52,0-58.41-.26-72.84l0-12.14V466l0-.67,0-1.34a47.4,47.4,0,0,0-.6-5.31,41.62,41.62,0,0,0-49.63-33.33c-116.37,24.2-287.52,59.88-404.15,83.86-7.64,1.63-28.21,5.8-35.67,7.37-2.93.53-7.06,1.48-9.8,2.19a42.11,42.11,0,0,0-10.62,5A41.29,41.29,0,0,0,840,559.59c0,49.13-.09,132.11-.11,182.1-.24,223.69-1.47,568.57-2.42,792.13A43.26,43.26,0,0,0,847.65,1562a43.83,43.83,0,0,0,40,15.14c6.18-.89,16.29-5.14,22.37-7.28,38.85-15.15,385.56-141,433-159.11Z" transform="translate(-619.39 -412.68)"/><path class="cls-2" d="M884.62,1347.56c4.5,54.84,5.8,109.94,6.32,164.94,0,.25,0,1,0,1.23a9.52,9.52,0,0,0,11.67,9c3.18-1,12.11-3.9,15.42-4.94,17.69-5.61,35.77-11.18,53.53-16.47,28.68-8.44,57.43-16.61,86.52-23.58l.31.94c-13.73,6-27.6,11.47-41.48,17-31.18,12.23-62.76,23.65-94.39,34.66L912,1534c-1,.34-3,1-4.07,1.42a22.27,22.27,0,0,1-9.69,1.29c-10.79-.79-20-9.94-20.82-20.73-.22-1.83,0-4.37-.06-6.23.19-24.08.65-48.65,1.42-72.69,1-29.85,2.34-59.67,4.88-89.46Z" transform="translate(-619.39 -412.68)"/><path class="cls-2" d="M882.12,708.6c-3.37-40.45-4.6-81.83-5.27-122.41,0-3.22-.3-7.33.21-10.49,1.58-13.23,12.49-24.53,25.62-26.73,45.5-9.13,91.1-17.57,137.2-23.25l.83,3.91c-24.11,7.33-48.41,13.64-72.77,19.67q-27.42,6.69-55,12.77l-9,2c-.17,0-.53.17-.69.22a17.67,17.67,0,0,0-11.86,17.2c-.21,15.46-.66,36.27-1.18,51.79-.86,25.11-2,50.22-4.15,75.33Z" transform="translate(-619.39 -412.68)"/><path class="cls-2" d="M1335.4,897.67c.87,20.79,1.33,41.6,0,62.37a2,2,0,0,1-4,0c-1.32-20.77-.87-41.58,0-62.37a2,2,0,0,1,4,0Z" transform="translate(-619.39 -412.68)"/><path class="cls-2" d="M1335.4,536.3c2.24,96.72,2.46,194.91,0,291.67a2,2,0,0,1-4,0c-.33-10.09-.64-26.23-.87-36.46-1-59.7-1-122.65-.43-182.29q.35-36.47,1.3-72.92a2,2,0,0,1,4,0Z" transform="translate(-619.39 -412.68)"/><polyline class="cls-3" points="336.88 655.89 409.59 665.03 394.45 752.91"/><polyline class="cls-3" points="390.55 458.6 408.51 545.01 336.02 583.5"/><polyline class="cls-3" points="637.51 590.04 577.23 626.72 591.19 701.68"/><polyline class="cls-3" points="626.19 649.59 577.23 626.72 349.95 520.52"/><polyline class="cls-3" points="591.62 428.61 576.97 514.2 637.51 525.54"/><polyline class="cls-3" points="624.57 470.35 576.97 514.2 354.08 719.47"/><polyline class="cls-3" points="546.5 746.42 496.63 702.76 445.24 774.12"/><polyline class="cls-3" points="545.25 399.82 495.32 465.14 442.51 413.67"/><polyline class="cls-3" points="494.93 395.47 495.32 465.14 497.06 779.18"/></svg>