<svg width="166" height="17" viewBox="0 0 166 17" fill="none" xmlns="http://www.w3.org/2000/svg">
<g clip-path="url(#clip0_116_566)">
<path d="M5.65452 5.66428C45.5895 5.21585 85.5244 4.76742 125.459 4.31899L159.94 3.93182L158.381 0.846087C128.097 2.25948 98.5653 4.62935 70.1907 7.78946C67.4935 8.08985 65.5205 8.67618 65.9903 9.51308C66.419 10.2767 68.7727 10.8744 71.7495 10.8752C79.9114 10.8775 87.8195 11.3858 95.1845 12.327V9.61415C91.1267 10.1302 86.6014 10.5583 82.8325 11.2133C78.4797 11.9699 76.8269 13.462 78.7665 14.7391C81.1099 16.282 86.5393 16.5508 92.1413 16.6441C99.6787 16.7697 99.6508 13.6274 92.1413 13.5023C91.1397 13.4856 90.11 13.4359 89.108 13.4335C88.7896 13.4327 89.5377 13.4601 89.5144 13.5182C89.4239 13.7437 89.3045 13.3461 89.6078 13.5746C89.9876 13.8609 89.7087 13.3924 89.6254 13.6741C89.5637 13.883 88.3689 13.917 89.7053 13.7766C90.3123 13.7129 90.8984 13.6249 91.4865 13.5501C94.6923 13.1424 97.898 12.7347 101.104 12.327C104.942 11.8389 104.931 10.1033 101.104 9.61416C91.8429 8.43062 82.0511 7.73625 71.7495 7.73336L73.3084 10.8191C101.683 7.65898 131.215 5.28912 161.499 3.87572C168.021 3.57134 166.492 0.716417 159.94 0.789987C120.005 1.2384 80.0699 1.68683 40.1349 2.13526L5.65452 2.52243C-1.86496 2.60686 -1.90469 5.74916 5.65452 5.66428Z" fill="#2A7187"/>
</g>
<defs>
<clipPath id="clip0_116_566">
<rect width="165.69" height="15.8592" fill="white" transform="translate(0 0.788574)"/>
</clipPath>
</defs>
</svg>
